<svg width="415" height="128" viewBox="0 0 415 128" fill="none" xmlns="http://www.w3.org/2000/svg">
<path d="M162.32 66.816C164.208 67.168 165.76 68.112 166.976 69.648C168.192 71.184 168.8 72.944 168.8 74.928C168.8 76.72 168.352 78.304 167.456 79.68C166.592 81.024 165.328 82.08 163.664 82.848C162 83.616 160.032 84 157.76 84H143.312V50.496H157.136C159.408 50.496 161.36 50.864 162.992 51.6C164.656 52.336 165.904 53.36 166.736 54.672C167.6 55.984 168.032 57.472 168.032 59.136C168.032 61.088 167.504 62.72 166.448 64.032C165.424 65.344 164.048 66.272 162.32 66.816ZM150.032 64.32H156.176C157.776 64.32 159.008 63.968 159.872 63.264C160.736 62.528 161.168 61.488 161.168 60.144C161.168 58.8 160.736 57.76 159.872 57.024C159.008 56.288 157.776 55.92 156.176 55.92H150.032V64.32ZM156.8 78.528C158.432 78.528 159.696 78.144 160.592 77.376C161.52 76.608 161.984 75.52 161.984 74.112C161.984 72.672 161.504 71.552 160.544 70.752C159.584 69.92 158.288 69.504 156.656 69.504H150.032V78.528H156.8ZM199.26 57.408V84H192.492V80.64C191.628 81.792 190.492 82.704 189.084 83.376C187.708 84.016 186.204 84.336 184.572 84.336C182.492 84.336 180.652 83.904 179.052 83.04C177.452 82.144 176.188 80.848 175.26 79.152C174.364 77.424 173.916 75.376 173.916 73.008V57.408H180.636V72.048C180.636 74.16 181.164 75.792 182.22 76.944C183.276 78.064 184.716 78.624 186.54 78.624C188.396 78.624 189.852 78.064 190.908 76.944C191.964 75.792 192.492 74.16 192.492 72.048V57.408H199.26ZM216.066 84.432C213.89 84.432 211.938 84.048 210.21 83.28C208.482 82.48 207.106 81.408 206.082 80.064C205.09 78.72 204.546 77.232 204.45 75.6H211.218C211.346 76.624 211.842 77.472 212.706 78.144C213.602 78.816 214.706 79.152 216.018 79.152C217.298 79.152 218.29 78.896 218.994 78.384C219.73 77.872 220.098 77.216 220.098 76.416C220.098 75.552 219.65 74.912 218.754 74.496C217.89 74.048 216.498 73.568 214.578 73.056C212.594 72.576 210.962 72.08 209.682 71.568C208.434 71.056 207.346 70.272 206.418 69.216C205.522 68.16 205.074 66.736 205.074 64.944C205.074 63.472 205.49 62.128 206.322 60.912C207.186 59.696 208.402 58.736 209.97 58.032C211.57 57.328 213.442 56.976 215.586 56.976C218.754 56.976 221.282 57.776 223.17 59.376C225.058 60.944 226.098 63.072 226.29 65.76H219.858C219.762 64.704 219.314 63.872 218.514 63.264C217.746 62.624 216.706 62.304 215.394 62.304C214.178 62.304 213.234 62.528 212.562 62.976C211.922 63.424 211.602 64.048 211.602 64.848C211.602 65.744 212.05 66.432 212.946 66.912C213.842 67.36 215.234 67.824 217.122 68.304C219.042 68.784 220.626 69.28 221.874 69.792C223.122 70.304 224.194 71.104 225.09 72.192C226.018 73.248 226.498 74.656 226.53 76.416C226.53 77.952 226.098 79.328 225.234 80.544C224.402 81.76 223.186 82.72 221.586 83.424C220.018 84.096 218.178 84.432 216.066 84.432ZM254.846 50.496V55.92H245.918V84H239.198V55.92H230.27V50.496H254.846ZM266.47 61.536C267.334 60.128 268.454 59.024 269.83 58.224C271.238 57.424 272.838 57.024 274.63 57.024V64.08H272.854C270.742 64.08 269.142 64.576 268.054 65.568C266.998 66.56 266.47 68.288 266.47 70.752V84H259.75V57.408H266.47V61.536ZM277.428 70.608C277.428 67.92 277.956 65.536 279.012 63.456C280.1 61.376 281.556 59.776 283.38 58.656C285.236 57.536 287.3 56.976 289.572 56.976C291.556 56.976 293.284 57.376 294.756 58.176C296.26 58.976 297.46 59.984 298.356 61.2V57.408H305.124V84H298.356V80.112C297.492 81.36 296.292 82.4 294.756 83.232C293.252 84.032 291.508 84.432 289.524 84.432C287.284 84.432 285.236 83.856 283.38 82.704C281.556 81.552 280.1 79.936 279.012 77.856C277.956 75.744 277.428 73.328 277.428 70.608ZM298.356 70.704C298.356 69.072 298.036 67.68 297.396 66.528C296.756 65.344 295.892 64.448 294.804 63.84C293.716 63.2 292.548 62.88 291.3 62.88C290.052 62.88 288.9 63.184 287.844 63.792C286.788 64.4 285.924 65.296 285.252 66.48C284.612 67.632 284.292 69.008 284.292 70.608C284.292 72.208 284.612 73.616 285.252 74.832C285.924 76.016 286.788 76.928 287.844 77.568C288.932 78.208 290.084 78.528 291.3 78.528C292.548 78.528 293.716 78.224 294.804 77.616C295.892 76.976 296.756 76.08 297.396 74.928C298.036 73.744 298.356 72.336 298.356 70.704ZM309.959 70.704C309.959 67.952 310.519 65.552 311.639 63.504C312.759 61.424 314.311 59.824 316.295 58.704C318.279 57.552 320.551 56.976 323.111 56.976C326.407 56.976 329.127 57.808 331.271 59.472C333.447 61.104 334.903 63.408 335.639 66.384H328.391C328.007 65.232 327.351 64.336 326.423 63.696C325.527 63.024 324.407 62.688 323.063 62.688C321.143 62.688 319.623 63.392 318.503 64.8C317.383 66.176 316.823 68.144 316.823 70.704C316.823 73.232 317.383 75.2 318.503 76.608C319.623 77.984 321.143 78.672 323.063 78.672C325.783 78.672 327.559 77.456 328.391 75.024H335.639C334.903 77.904 333.447 80.192 331.271 81.888C329.095 83.584 326.375 84.432 323.111 84.432C320.551 84.432 318.279 83.872 316.295 82.752C314.311 81.6 312.759 80 311.639 77.952C310.519 75.872 309.959 73.456 309.959 70.704ZM356.306 84L347.282 72.672V84H340.562V48.48H347.282V68.688L356.21 57.408H364.946L353.234 70.752L365.042 84H356.306ZM393.313 70.128C393.313 71.088 393.249 71.952 393.121 72.72H373.681C373.841 74.64 374.513 76.144 375.697 77.232C376.881 78.32 378.337 78.864 380.065 78.864C382.561 78.864 384.337 77.792 385.393 75.648H392.641C391.873 78.208 390.401 80.32 388.225 81.984C386.049 83.616 383.377 84.432 380.209 84.432C377.649 84.432 375.345 83.872 373.297 82.752C371.281 81.6 369.697 79.984 368.545 77.904C367.425 75.824 366.865 73.424 366.865 70.704C366.865 67.952 367.425 65.536 368.545 63.456C369.665 61.376 371.233 59.776 373.249 58.656C375.265 57.536 377.585 56.976 380.209 56.976C382.737 56.976 384.993 57.52 386.977 58.608C388.993 59.696 390.545 61.248 391.633 63.264C392.753 65.248 393.313 67.536 393.313 70.128ZM386.353 68.208C386.321 66.48 385.697 65.104 384.481 64.08C383.265 63.024 381.777 62.496 380.017 62.496C378.353 62.496 376.945 63.008 375.793 64.032C374.673 65.024 373.985 66.416 373.729 68.208H386.353ZM404.938 61.536C405.802 60.128 406.922 59.024 408.298 58.224C409.706 57.424 411.306 57.024 413.098 57.024V64.08H411.322C409.21 64.08 407.61 64.576 406.522 65.568C405.466 66.56 404.938 68.288 404.938 70.752V84H398.218V57.408H404.938V61.536Z" fill="white"/>
<rect x="17" y="16" width="95" height="95" rx="24.5161" fill="#9A2424"/>
<g filter="url(#filter0_f_9_271)">
<rect x="31.5564" y="31.3226" width="65.121" height="65.121" fill="#671515"/>
</g>
<mask id="path-4-outside-1_9_271" maskUnits="userSpaceOnUse" x="27.4919" y="30.3226" width="75" height="69" fill="black">
<rect fill="white" x="27.4919" y="30.3226" width="75" height="69"/>
<path fill-rule="evenodd" clip-rule="evenodd" d="M43.0952 31.3689C40.1724 31.752 37.8306 34.0308 37.3546 36.9548C37.2766 37.4343 37.2577 38.3939 37.2575 41.8838L37.2572 46.2172L35.6159 46.8675L33.9746 47.5178L33.581 47.4403C33.3256 47.3901 32.6414 47.3707 31.6334 47.385C30.1177 47.4065 30.0705 47.4112 29.7101 47.5803C29.2403 47.8006 28.8856 48.1554 28.6653 48.6251L28.4919 48.9947V53.4931V57.9914L28.6653 58.361C28.8856 58.8307 29.2403 59.1855 29.7101 59.4058L30.0796 59.5791H31.8657C33.6513 59.5791 33.652 59.5791 34.0187 59.4071C34.5251 59.1696 34.8378 58.8758 35.055 58.4335L35.2395 58.0576L35.2726 53.6271L35.3057 49.1966L36.2649 48.8225L37.2241 48.4485L37.2583 66.219L37.2924 83.9895L37.4353 84.5187C37.9629 86.4724 39.2381 88.0796 40.9461 88.9434C41.4671 89.2069 42.3812 89.4936 42.996 89.5863L43.5417 89.6685V92.6307C43.5417 94.5719 43.5674 95.7137 43.6161 95.9434C43.8329 96.9654 44.5937 97.7105 45.6282 97.914C45.8956 97.9666 46.6442 97.9838 47.9414 97.9672C49.7516 97.9439 49.8807 97.9341 50.2395 97.7917C50.7691 97.5814 51.2914 97.0862 51.5612 96.5384L51.7777 96.0985L51.8108 92.8886L51.8439 89.6787H64.9091H77.9743L78.0074 92.8886L78.0404 96.0985L78.257 96.5384C78.5269 97.0863 79.0491 97.5814 79.5787 97.7916C79.9364 97.9335 80.0701 97.9439 81.8442 97.9681C84.0223 97.998 84.4206 97.9529 84.9992 97.6107C85.6436 97.2296 86.0482 96.6689 86.2021 95.9434C86.2508 95.7137 86.2765 94.5719 86.2765 92.6307V89.6685L86.8222 89.5863C87.437 89.4936 88.3511 89.2069 88.8721 88.9434C90.58 88.0796 91.8553 86.4724 92.3829 84.5187L92.5258 83.9895L92.5599 66.219L92.5941 48.4485L93.5533 48.8225L94.5125 49.1966L94.5456 53.6271L94.5786 58.0576L94.7632 58.4335C94.9804 58.8758 95.2931 59.1696 95.7994 59.4071C96.1662 59.5791 96.1668 59.5791 97.9524 59.5791H99.7386L100.108 59.4058C100.578 59.1855 100.933 58.8307 101.153 58.361L101.326 57.9914V53.4931V48.9947L101.153 48.6251C100.933 48.1554 100.578 47.8006 100.108 47.5803C99.7476 47.4112 99.7005 47.4065 98.1848 47.385C97.1768 47.3707 96.4926 47.3901 96.2372 47.4403L95.8436 47.5178L94.2023 46.8675L92.561 46.2172V41.9481C92.561 37.4197 92.5358 36.9375 92.2527 36.0401C91.5433 33.7911 89.8208 32.1556 87.4808 31.5092L86.8388 31.3318L65.1737 31.3232C53.2579 31.3186 43.3226 31.3391 43.0952 31.3689ZM81.5541 35.1728C81.9983 35.5044 82.0096 35.5487 82.0096 36.9548C82.0096 38.361 81.9983 38.4052 81.5541 38.7369L81.3714 38.8733H64.9091H48.4468L48.264 38.7369C47.8469 38.4255 47.8123 38.3201 47.7854 37.28C47.7516 35.9712 47.7989 35.6434 48.0633 35.3549C48.1815 35.2259 48.3747 35.1014 48.5042 35.0707C48.631 35.0408 56.078 35.0207 65.0531 35.0263L81.3714 35.0364L81.5541 35.1728ZM68.0844 41.6851C72.9522 41.7696 77.0362 41.9427 82.1893 42.2829C84.4858 42.4344 84.6654 42.4787 85.2746 43.0427C85.7275 43.462 86.0365 44.0277 86.1768 44.6947C86.3225 45.3875 86.3225 61.0032 86.1768 61.696C86.0365 62.363 85.7275 62.9288 85.2746 63.348C84.6899 63.8894 84.4454 63.9567 82.6226 64.0782C81.7761 64.1347 79.3569 64.2985 77.2466 64.4421C68.2968 65.0514 66.3769 65.136 62.726 65.0817C59.0958 65.0278 55.7041 64.8234 48.788 64.2418C45.1415 63.9351 45.1396 63.9347 44.4964 63.2895C44.0352 62.8268 43.7813 62.3531 43.6419 61.6949C43.4953 61.0032 43.4953 45.3875 43.6419 44.6959C43.7813 44.0376 44.0352 43.5639 44.4964 43.1012C45.1355 42.4602 45.2209 42.4399 48.0958 42.2472C52.8106 41.9312 56.7632 41.7563 60.7084 41.6891C62.2729 41.6624 63.7465 41.6363 63.983 41.631C64.2194 41.6257 66.0651 41.65 68.0844 41.6851ZM74.0051 75.0173C74.1506 75.0838 74.3635 75.2346 74.4782 75.3524C74.8678 75.7531 74.8675 75.7655 74.3635 79.1971C74.1127 80.9055 73.8608 82.4147 73.8039 82.551C73.747 82.6872 73.6201 82.8834 73.522 82.9868C73.1396 83.3897 73.0572 83.4075 69.0186 83.9616C66.9221 84.2492 65.0728 84.4845 64.9091 84.4845C64.7454 84.4845 62.8961 84.2492 60.7996 83.9616C56.761 83.4075 56.6786 83.3897 56.2962 82.9868C56.1981 82.8834 56.0706 82.6859 56.0129 82.5478C55.9553 82.4098 55.7032 80.8985 55.4528 79.1893C54.9649 75.8589 54.9632 75.8258 55.2697 75.4113C55.3461 75.308 55.5576 75.1492 55.7396 75.0584L56.0706 74.8935L64.9055 74.895C73.3192 74.8963 73.7531 74.9022 74.0051 75.0173ZM49.4378 75.2708C50.5724 75.6619 51.4544 76.4367 51.9828 77.5065C52.6197 78.7962 52.6285 80.1308 52.0086 81.4096C51.2555 82.9629 49.7666 83.9022 48.0401 83.9132C47.3554 83.9175 46.8979 83.8298 46.2908 83.5779C45.0632 83.0685 44.0492 81.8979 43.6963 80.5826C43.5155 79.9089 43.5452 78.8398 43.7633 78.1681C44.1483 76.9827 44.9383 76.0507 46.0044 75.5237C46.8053 75.1278 47.2938 75.0214 48.1731 75.0511C48.7304 75.0699 48.9814 75.1135 49.4378 75.2708ZM82.7373 75.1247C82.992 75.1779 83.4764 75.3576 83.8138 75.5241C84.8796 76.0502 85.6697 76.9823 86.0549 78.1681C86.273 78.8398 86.3027 79.9089 86.1219 80.5826C85.7114 82.1121 84.4356 83.3854 82.9027 83.7954C82.333 83.9478 81.2919 83.9497 80.7196 83.7994C77.8457 83.0447 76.4773 79.7719 77.9705 77.2242C78.9312 75.5851 80.864 74.7339 82.7373 75.1247Z"/>
</mask>
<path fill-rule="evenodd" clip-rule="evenodd" d="M43.0952 31.3689C40.1724 31.752 37.8306 34.0308 37.3546 36.9548C37.2766 37.4343 37.2577 38.3939 37.2575 41.8838L37.2572 46.2172L35.6159 46.8675L33.9746 47.5178L33.581 47.4403C33.3256 47.3901 32.6414 47.3707 31.6334 47.385C30.1177 47.4065 30.0705 47.4112 29.7101 47.5803C29.2403 47.8006 28.8856 48.1554 28.6653 48.6251L28.4919 48.9947V53.4931V57.9914L28.6653 58.361C28.8856 58.8307 29.2403 59.1855 29.7101 59.4058L30.0796 59.5791H31.8657C33.6513 59.5791 33.652 59.5791 34.0187 59.4071C34.5251 59.1696 34.8378 58.8758 35.055 58.4335L35.2395 58.0576L35.2726 53.6271L35.3057 49.1966L36.2649 48.8225L37.2241 48.4485L37.2583 66.219L37.2924 83.9895L37.4353 84.5187C37.9629 86.4724 39.2381 88.0796 40.9461 88.9434C41.4671 89.2069 42.3812 89.4936 42.996 89.5863L43.5417 89.6685V92.6307C43.5417 94.5719 43.5674 95.7137 43.6161 95.9434C43.8329 96.9654 44.5937 97.7105 45.6282 97.914C45.8956 97.9666 46.6442 97.9838 47.9414 97.9672C49.7516 97.9439 49.8807 97.9341 50.2395 97.7917C50.7691 97.5814 51.2914 97.0862 51.5612 96.5384L51.7777 96.0985L51.8108 92.8886L51.8439 89.6787H64.9091H77.9743L78.0074 92.8886L78.0404 96.0985L78.257 96.5384C78.5269 97.0863 79.0491 97.5814 79.5787 97.7916C79.9364 97.9335 80.0701 97.9439 81.8442 97.9681C84.0223 97.998 84.4206 97.9529 84.9992 97.6107C85.6436 97.2296 86.0482 96.6689 86.2021 95.9434C86.2508 95.7137 86.2765 94.5719 86.2765 92.6307V89.6685L86.8222 89.5863C87.437 89.4936 88.3511 89.2069 88.8721 88.9434C90.58 88.0796 91.8553 86.4724 92.3829 84.5187L92.5258 83.9895L92.5599 66.219L92.5941 48.4485L93.5533 48.8225L94.5125 49.1966L94.5456 53.6271L94.5786 58.0576L94.7632 58.4335C94.9804 58.8758 95.2931 59.1696 95.7994 59.4071C96.1662 59.5791 96.1668 59.5791 97.9524 59.5791H99.7386L100.108 59.4058C100.578 59.1855 100.933 58.8307 101.153 58.361L101.326 57.9914V53.4931V48.9947L101.153 48.6251C100.933 48.1554 100.578 47.8006 100.108 47.5803C99.7476 47.4112 99.7005 47.4065 98.1848 47.385C97.1768 47.3707 96.4926 47.3901 96.2372 47.4403L95.8436 47.5178L94.2023 46.8675L92.561 46.2172V41.9481C92.561 37.4197 92.5358 36.9375 92.2527 36.0401C91.5433 33.7911 89.8208 32.1556 87.4808 31.5092L86.8388 31.3318L65.1737 31.3232C53.2579 31.3186 43.3226 31.3391 43.0952 31.3689ZM81.5541 35.1728C81.9983 35.5044 82.0096 35.5487 82.0096 36.9548C82.0096 38.361 81.9983 38.4052 81.5541 38.7369L81.3714 38.8733H64.9091H48.4468L48.264 38.7369C47.8469 38.4255 47.8123 38.3201 47.7854 37.28C47.7516 35.9712 47.7989 35.6434 48.0633 35.3549C48.1815 35.2259 48.3747 35.1014 48.5042 35.0707C48.631 35.0408 56.078 35.0207 65.0531 35.0263L81.3714 35.0364L81.5541 35.1728ZM68.0844 41.6851C72.9522 41.7696 77.0362 41.9427 82.1893 42.2829C84.4858 42.4344 84.6654 42.4787 85.2746 43.0427C85.7275 43.462 86.0365 44.0277 86.1768 44.6947C86.3225 45.3875 86.3225 61.0032 86.1768 61.696C86.0365 62.363 85.7275 62.9288 85.2746 63.348C84.6899 63.8894 84.4454 63.9567 82.6226 64.0782C81.7761 64.1347 79.3569 64.2985 77.2466 64.4421C68.2968 65.0514 66.3769 65.136 62.726 65.0817C59.0958 65.0278 55.7041 64.8234 48.788 64.2418C45.1415 63.9351 45.1396 63.9347 44.4964 63.2895C44.0352 62.8268 43.7813 62.3531 43.6419 61.6949C43.4953 61.0032 43.4953 45.3875 43.6419 44.6959C43.7813 44.0376 44.0352 43.5639 44.4964 43.1012C45.1355 42.4602 45.2209 42.4399 48.0958 42.2472C52.8106 41.9312 56.7632 41.7563 60.7084 41.6891C62.2729 41.6624 63.7465 41.6363 63.983 41.631C64.2194 41.6257 66.0651 41.65 68.0844 41.6851ZM74.0051 75.0173C74.1506 75.0838 74.3635 75.2346 74.4782 75.3524C74.8678 75.7531 74.8675 75.7655 74.3635 79.1971C74.1127 80.9055 73.8608 82.4147 73.8039 82.551C73.747 82.6872 73.6201 82.8834 73.522 82.9868C73.1396 83.3897 73.0572 83.4075 69.0186 83.9616C66.9221 84.2492 65.0728 84.4845 64.9091 84.4845C64.7454 84.4845 62.8961 84.2492 60.7996 83.9616C56.761 83.4075 56.6786 83.3897 56.2962 82.9868C56.1981 82.8834 56.0706 82.6859 56.0129 82.5478C55.9553 82.4098 55.7032 80.8985 55.4528 79.1893C54.9649 75.8589 54.9632 75.8258 55.2697 75.4113C55.3461 75.308 55.5576 75.1492 55.7396 75.0584L56.0706 74.8935L64.9055 74.895C73.3192 74.8963 73.7531 74.9022 74.0051 75.0173ZM49.4378 75.2708C50.5724 75.6619 51.4544 76.4367 51.9828 77.5065C52.6197 78.7962 52.6285 80.1308 52.0086 81.4096C51.2555 82.9629 49.7666 83.9022 48.0401 83.9132C47.3554 83.9175 46.8979 83.8298 46.2908 83.5779C45.0632 83.0685 44.0492 81.8979 43.6963 80.5826C43.5155 79.9089 43.5452 78.8398 43.7633 78.1681C44.1483 76.9827 44.9383 76.0507 46.0044 75.5237C46.8053 75.1278 47.2938 75.0214 48.1731 75.0511C48.7304 75.0699 48.9814 75.1135 49.4378 75.2708ZM82.7373 75.1247C82.992 75.1779 83.4764 75.3576 83.8138 75.5241C84.8796 76.0502 85.6697 76.9823 86.0549 78.1681C86.273 78.8398 86.3027 79.9089 86.1219 80.5826C85.7114 82.1121 84.4356 83.3854 82.9027 83.7954C82.333 83.9478 81.2919 83.9497 80.7196 83.7994C77.8457 83.0447 76.4773 79.7719 77.9705 77.2242C78.9312 75.5851 80.864 74.7339 82.7373 75.1247Z" fill="url(#paint0_linear_9_271)" fill-opacity="0.3"/>
<path fill-rule="evenodd" clip-rule="evenodd" d="M43.0952 31.3689C40.1724 31.752 37.8306 34.0308 37.3546 36.9548C37.2766 37.4343 37.2577 38.3939 37.2575 41.8838L37.2572 46.2172L35.6159 46.8675L33.9746 47.5178L33.581 47.4403C33.3256 47.3901 32.6414 47.3707 31.6334 47.385C30.1177 47.4065 30.0705 47.4112 29.7101 47.5803C29.2403 47.8006 28.8856 48.1554 28.6653 48.6251L28.4919 48.9947V53.4931V57.9914L28.6653 58.361C28.8856 58.8307 29.2403 59.1855 29.7101 59.4058L30.0796 59.5791H31.8657C33.6513 59.5791 33.652 59.5791 34.0187 59.4071C34.5251 59.1696 34.8378 58.8758 35.055 58.4335L35.2395 58.0576L35.2726 53.6271L35.3057 49.1966L36.2649 48.8225L37.2241 48.4485L37.2583 66.219L37.2924 83.9895L37.4353 84.5187C37.9629 86.4724 39.2381 88.0796 40.9461 88.9434C41.4671 89.2069 42.3812 89.4936 42.996 89.5863L43.5417 89.6685V92.6307C43.5417 94.5719 43.5674 95.7137 43.6161 95.9434C43.8329 96.9654 44.5937 97.7105 45.6282 97.914C45.8956 97.9666 46.6442 97.9838 47.9414 97.9672C49.7516 97.9439 49.8807 97.9341 50.2395 97.7917C50.7691 97.5814 51.2914 97.0862 51.5612 96.5384L51.7777 96.0985L51.8108 92.8886L51.8439 89.6787H64.9091H77.9743L78.0074 92.8886L78.0404 96.0985L78.257 96.5384C78.5269 97.0863 79.0491 97.5814 79.5787 97.7916C79.9364 97.9335 80.0701 97.9439 81.8442 97.9681C84.0223 97.998 84.4206 97.9529 84.9992 97.6107C85.6436 97.2296 86.0482 96.6689 86.2021 95.9434C86.2508 95.7137 86.2765 94.5719 86.2765 92.6307V89.6685L86.8222 89.5863C87.437 89.4936 88.3511 89.2069 88.8721 88.9434C90.58 88.0796 91.8553 86.4724 92.3829 84.5187L92.5258 83.9895L92.5599 66.219L92.5941 48.4485L93.5533 48.8225L94.5125 49.1966L94.5456 53.6271L94.5786 58.0576L94.7632 58.4335C94.9804 58.8758 95.2931 59.1696 95.7994 59.4071C96.1662 59.5791 96.1668 59.5791 97.9524 59.5791H99.7386L100.108 59.4058C100.578 59.1855 100.933 58.8307 101.153 58.361L101.326 57.9914V53.4931V48.9947L101.153 48.6251C100.933 48.1554 100.578 47.8006 100.108 47.5803C99.7476 47.4112 99.7005 47.4065 98.1848 47.385C97.1768 47.3707 96.4926 47.3901 96.2372 47.4403L95.8436 47.5178L94.2023 46.8675L92.561 46.2172V41.9481C92.561 37.4197 92.5358 36.9375 92.2527 36.0401C91.5433 33.7911 89.8208 32.1556 87.4808 31.5092L86.8388 31.3318L65.1737 31.3232C53.2579 31.3186 43.3226 31.3391 43.0952 31.3689ZM81.5541 35.1728C81.9983 35.5044 82.0096 35.5487 82.0096 36.9548C82.0096 38.361 81.9983 38.4052 81.5541 38.7369L81.3714 38.8733H64.9091H48.4468L48.264 38.7369C47.8469 38.4255 47.8123 38.3201 47.7854 37.28C47.7516 35.9712 47.7989 35.6434 48.0633 35.3549C48.1815 35.2259 48.3747 35.1014 48.5042 35.0707C48.631 35.0408 56.078 35.0207 65.0531 35.0263L81.3714 35.0364L81.5541 35.1728ZM68.0844 41.6851C72.9522 41.7696 77.0362 41.9427 82.1893 42.2829C84.4858 42.4344 84.6654 42.4787 85.2746 43.0427C85.7275 43.462 86.0365 44.0277 86.1768 44.6947C86.3225 45.3875 86.3225 61.0032 86.1768 61.696C86.0365 62.363 85.7275 62.9288 85.2746 63.348C84.6899 63.8894 84.4454 63.9567 82.6226 64.0782C81.7761 64.1347 79.3569 64.2985 77.2466 64.4421C68.2968 65.0514 66.3769 65.136 62.726 65.0817C59.0958 65.0278 55.7041 64.8234 48.788 64.2418C45.1415 63.9351 45.1396 63.9347 44.4964 63.2895C44.0352 62.8268 43.7813 62.3531 43.6419 61.6949C43.4953 61.0032 43.4953 45.3875 43.6419 44.6959C43.7813 44.0376 44.0352 43.5639 44.4964 43.1012C45.1355 42.4602 45.2209 42.4399 48.0958 42.2472C52.8106 41.9312 56.7632 41.7563 60.7084 41.6891C62.2729 41.6624 63.7465 41.6363 63.983 41.631C64.2194 41.6257 66.0651 41.65 68.0844 41.6851ZM74.0051 75.0173C74.1506 75.0838 74.3635 75.2346 74.4782 75.3524C74.8678 75.7531 74.8675 75.7655 74.3635 79.1971C74.1127 80.9055 73.8608 82.4147 73.8039 82.551C73.747 82.6872 73.6201 82.8834 73.522 82.9868C73.1396 83.3897 73.0572 83.4075 69.0186 83.9616C66.9221 84.2492 65.0728 84.4845 64.9091 84.4845C64.7454 84.4845 62.8961 84.2492 60.7996 83.9616C56.761 83.4075 56.6786 83.3897 56.2962 82.9868C56.1981 82.8834 56.0706 82.6859 56.0129 82.5478C55.9553 82.4098 55.7032 80.8985 55.4528 79.1893C54.9649 75.8589 54.9632 75.8258 55.2697 75.4113C55.3461 75.308 55.5576 75.1492 55.7396 75.0584L56.0706 74.8935L64.9055 74.895C73.3192 74.8963 73.7531 74.9022 74.0051 75.0173ZM49.4378 75.2708C50.5724 75.6619 51.4544 76.4367 51.9828 77.5065C52.6197 78.7962 52.6285 80.1308 52.0086 81.4096C51.2555 82.9629 49.7666 83.9022 48.0401 83.9132C47.3554 83.9175 46.8979 83.8298 46.2908 83.5779C45.0632 83.0685 44.0492 81.8979 43.6963 80.5826C43.5155 79.9089 43.5452 78.8398 43.7633 78.1681C44.1483 76.9827 44.9383 76.0507 46.0044 75.5237C46.8053 75.1278 47.2938 75.0214 48.1731 75.0511C48.7304 75.0699 48.9814 75.1135 49.4378 75.2708ZM82.7373 75.1247C82.992 75.1779 83.4764 75.3576 83.8138 75.5241C84.8796 76.0502 85.6697 76.9823 86.0549 78.1681C86.273 78.8398 86.3027 79.9089 86.1219 80.5826C85.7114 82.1121 84.4356 83.3854 82.9027 83.7954C82.333 83.9478 81.2919 83.9497 80.7196 83.7994C77.8457 83.0447 76.4773 79.7719 77.9705 77.2242C78.9312 75.5851 80.864 74.7339 82.7373 75.1247Z" stroke="url(#paint1_linear_9_271)" stroke-width="1.60075" mask="url(#path-4-outside-1_9_271)"/>
<defs>
<filter id="filter0_f_9_271" x="0.334017" y="0.100199" width="127.566" height="127.566" filterUnits="userSpaceOnUse" color-interpolation-filters="sRGB">
<feFlood flood-opacity="0" result="BackgroundImageFix"/>
<feBlend mode="normal" in="SourceGraphic" in2="BackgroundImageFix" result="shape"/>
<feGaussianBlur stdDeviation="15.6112" result="effect1_foregroundBlur_9_271"/>
</filter>
<linearGradient id="paint0_linear_9_271" x1="28.4919" y1="31.3226" x2="101.274" y2="97.9758" gradientUnits="userSpaceOnUse">
<stop stop-color="white"/>
<stop offset="1" stop-color="white" stop-opacity="0.3"/>
</linearGradient>
<linearGradient id="paint1_linear_9_271" x1="28.4919" y1="31.3226" x2="101.326" y2="97.7539" gradientUnits="userSpaceOnUse">
<stop stop-color="white" stop-opacity="0.5"/>
<stop offset="1" stop-color="white" stop-opacity="0.1"/>
</linearGradient>
</defs>
</svg>
